<svg width="120" height="120" viewBox="0 0 120 120" fill="none" xmlns="http://www.w3.org/2000/svg">
<path d="M60 0C48.1331 0 36.5328 3.51894 26.6658 10.1118C16.7989 16.7047 9.10851 26.0754 4.56725 37.039C0.025997 48.0025 -1.1622 60.0665 1.15291 71.7054C3.46802 83.3443 9.18247 94.0352 17.5736 102.426C25.9648 110.818 36.6557 116.532 48.2946 118.847C59.9335 121.162 71.9975 119.974 82.961 115.433C93.9246 110.891 103.295 103.201 109.888 93.3342C116.481 83.4672 120 71.8669 120 60C119.979 44.0933 113.651 28.8441 102.404 17.5964C91.1559 6.34867 75.9067 0.0206384 60 0ZM13.59 33.348C18.0962 25.5792 24.4729 19.0601 32.1402 14.3835C39.8076 9.70679 48.5223 7.02089 57.492 6.57L50.316 54.108L12.396 84.756C8.27812 76.7717 6.22912 67.8818 6.43667 58.9005C6.64423 49.9193 9.10769 41.1336 13.59 33.348ZM106.35 33.258C110.823 40.9948 113.299 49.7237 113.555 58.6568C113.81 67.5899 111.837 76.4461 107.814 84.426L69.474 54.756L62.634 6.582C71.5606 7.05782 80.229 9.74471 87.8597 14.4011C95.4905 19.0575 101.844 25.5373 106.35 33.258ZM105.282 88.92C100.443 96.4955 93.7831 102.738 85.911 107.078C78.0389 111.418 69.2051 113.718 60.216 113.766H59.94C50.9901 113.739 42.1884 111.479 34.3334 107.189C26.4784 102.9 19.8185 96.7171 14.958 89.202L60 70.554L105.282 88.92Z" fill="#302D2D"/>
</svg>
